<svg xmlns="http://www.w3.org/2000/svg" viewBox="0 0 1750.92 1573.33"><defs><style>.a{fill:#fff;}</style></defs><title>berry</title><path class="a" d="M1491.65,806h0c75.7-131.11-18.92-295-170.31-295h0c-151.4,0-246,163.89-170.32,295h0C1226.71,937.11,1416,937.11,1491.65,806Z" transform="translate(-1124.38 -511)"/><path class="a" d="M1832.65,1396h0c75.7-131.11-18.92-295-170.31-295h0c-151.4,0-246,163.89-170.32,295h0C1567.71,1527.11,1757,1527.11,1832.65,1396Z" transform="translate(-1124.38 -511)"/><path class="a" d="M2173.65,1986h0c75.7-131.11-18.92-295-170.31-295h0c-151.4,0-246,163.89-170.32,295h0C1908.71,2117.11,2098,2117.11,2173.65,1986Z" transform="translate(-1124.38 -511)"/><path class="a" d="M2514.65,1396h0c75.7-131.11-18.92-295-170.31-295h0c-151.4,0-246,163.89-170.32,295h0C2249.71,1527.11,2439,1527.11,2514.65,1396Z" transform="translate(-1124.38 -511)"/><path class="a" d="M2848.65,806h0c75.7-131.11-18.92-295-170.31-295h0c-151.4,0-246,163.89-170.32,295h0C2583.71,937.11,2773,937.11,2848.65,806Z" transform="translate(-1124.38 -511)"/><path class="a" d="M2173.65,806h0c75.7-131.11-18.92-295-170.31-295h0c-151.4,0-246,163.89-170.32,295h0C1908.71,937.11,2098,937.11,2173.65,806Z" transform="translate(-1124.38 -511)"/></svg>