<svg xmlns="http://www.w3.org/2000/svg" xmlns:xlink="http://www.w3.org/1999/xlink" viewBox="0 0 1920 741"><defs><style>.a{opacity:0.2;fill:url(#a);}.b{opacity:0.3;fill:url(#b);}.c{fill:url(#c);}</style><linearGradient id="a" x1="434.27" y1="-228.69" x2="1537.48" y2="874.52" gradientUnits="userSpaceOnUse"><stop offset="0" stop-color="#3fa9f5"/><stop offset="1" stop-color="blue"/></linearGradient><linearGradient id="b" x1="346.08" y1="-290.08" x2="1524.08" y2="887.92" xlink:href="#a"/><linearGradient id="c" x1="287.25" y1="-252.25" x2="1764.46" y2="1224.96" xlink:href="#a"/></defs><title>bg</title><path class="a" d="M1920,155.68V492H0V205.57l.65.53c45.11,36.56,101.78,60.32,161.44,68.06,10.34,1.35,20.78,2.21,31.26,2.58,3.78.13,7.57.19,11.35.19,2.34,0,4.7,0,7.06-.11h0C332.29,273.19,484.63,178.69,664,138c49.48-11.23,101-18.36,154.5-18.36,56.93,0,107.28,10.72,154.21,27.3,33.6,11.86,65.44,26.74,96.7,42.83,65.52,33.73,128.45,72.83,199.51,100.86,34.36,13.56,70.61,24.53,110,31.06,25.5,4.24,24.66,6.32,53.09,6.32a581.21,581.21,0,0,0,71.7-4.55h0C1656.07,304.5,1797.39,229.7,1864,164c14.35-14.14,35.33-36.95,56-61.88,0,0,0,0,0,0V149C1920,151.17,1920,153.39,1920,155.68Z"/><path class="b" d="M1875,269c34.58-33.73,44.42-79.53,45-113.32V492H0L.65,206.1,1,57.13V55c0,1,.05,2,.08,3,0,0,0,0,0,.07a163.55,163.55,0,0,0,12.29,56c30.39,74.36,112.38,131,198.38,162.7h0c11.71,4.32,23.5,8.17,35.24,11.54h0a446,446,0,0,0,76,15.08,338.91,338.91,0,0,0,41.84,1.79C484.09,303,634.25,209.12,812.92,167c38.72-9.13,78.77-15.83,120.14-18.63h0q15.42-1.06,31.07-1.36c2.88,0,5.73-.08,8.57-.08,210-.05,331.52,143.19,531,176.52h0q6.76,1.13,13.67,2.09a505,505,0,0,0,74.38,4.76h0l4.9-.07C1771.54,327,1800.82,341.36,1875,269Z"/><path class="c" d="M1920,102.12c-.81,33.67-21,70.71-56.74,105.29-56.69,54.93-152.42,103.67-271.44,122.89h0A688.67,688.67,0,0,1,1482,339a475.08,475.08,0,0,1-76.81-6.17c-49.74-8.11-94.26-23.53-136.26-42.21-69.33-30.83-131.78-70.54-199.51-100.86-42.39-19-86.85-34.27-136.34-41.39h0A424.17,424.17,0,0,0,872,144c-50.89,0-99.92,6.66-147,17.16C551,199.94,403.7,291,288,291a320.14,320.14,0,0,1-40.54-2.58l-.44-.06h0a322,322,0,0,1-53.66-11.62c-82.28-25.33-151.84-83.08-180-162.62a232,232,0,0,1-12.29-56s0-.05,0-.07c0-.3-.06-.6-.08-.9v-.05Q0,46.24,0,35V741H1920V100C1920,100.7,1920,101.41,1920,102.12Z"/></svg>