<svg xmlns="http://www.w3.org/2000/svg" xmlns:xlink="http://www.w3.org/1999/xlink" viewBox="0 0 1920 1094"><defs><style>.a{opacity:0.3;fill:url(#a);}.b{opacity:0.2;fill:url(#b);}.c{fill:url(#c);}</style><linearGradient id="a" y1="540.5" x2="1804" y2="540.5" gradientUnits="userSpaceOnUse"><stop offset="0" stop-color="#3fa9f5"/><stop offset="1" stop-color="blue"/></linearGradient><linearGradient id="b" y1="563.5" x2="1920" y2="563.5" xlink:href="#a"/><linearGradient id="c" x1="269.96" y1="1127.39" x2="1658.67" y2="-261.33" xlink:href="#a"/></defs><title>bg</title><path class="a" d="M1804,24V771.76c0,125.34-156,279.28-398.81,285.07q-7,.17-14.18.17a534,534,0,0,1-57.91-3.13c-158-17.17-271.06-100.77-405.95-144.08-48.94-15.71-100.74-26.11-158.6-26.11q-22.35,0-43.55,1.48c-209.94,14.26-339.09,127.27-475.16,127.27h-2.38a425.55,425.55,0,0,1-54.24-3.94C125.9,999.39,54.59,974.69,0,935.67V24Z"/><path class="b" d="M1920,47V794.76c0,44.58-20,92.79-56.77,136.65C1794.58,1013.25,1667.36,1080,1502,1080c-62.26,0-117.48-10.41-168.9-26.13-141.71-43.32-254.53-126.95-405.95-144.08A488.5,488.5,0,0,0,872,906.68c-239,0-378,128.75-525,128.75-48.52,0-102.81-9.17-153.78-27C89.76,972.41,0,900.9,0,798.72V47Z"/><path class="c" d="M1920,0V824c0,34.23-20.32,72.1-56.77,107.41C1790,1002.37,1651.6,1063,1482,1063a475.08,475.08,0,0,1-76.81-6.17C1201.69,1023.67,1085.54,868,872,868c-50.89,0-99.92,6.66-147,17.16C551,923.94,403.7,1015,288,1015a320.14,320.14,0,0,1-40.54-2.58C116.11,995.68,0,898.75,0,759V0Z"/></svg>